<svg width="16" height="16" viewBox="0 0 16 16" fill="none" xmlns="http://www.w3.org/2000/svg">
<path d="M8 10.9795C7.88184 10.9795 7.7762 10.9347 7.68311 10.8452L3.78906 6.80615C3.74967 6.76676 3.71745 6.72201 3.69238 6.67188C3.6709 6.62174 3.66016 6.56803 3.66016 6.51074C3.66016 6.42839 3.67806 6.35677 3.71387 6.2959C3.75326 6.23145 3.80339 6.18132 3.86426 6.14551C3.92871 6.10612 4.00033 6.08643 4.0791 6.08643C4.19368 6.08643 4.29215 6.1276 4.37451 6.20996L8.25781 10.2114H7.74756L11.6201 6.20996C11.7061 6.1276 11.8063 6.08643 11.9209 6.08643C11.9997 6.08643 12.0713 6.10612 12.1357 6.14551C12.2002 6.18132 12.2503 6.23145 12.2861 6.2959C12.3219 6.35677 12.3398 6.42839 12.3398 6.51074C12.3398 6.62174 12.2987 6.72021 12.2163 6.80615L8.31152 10.8398C8.27214 10.8864 8.22559 10.9222 8.17188 10.9473C8.11816 10.9688 8.06087 10.9795 8 10.9795Z" fill="#7E7E7E"/>
</svg>
