<svg width="16" height="16" viewBox="0 0 16 16" fill="none" xmlns="http://www.w3.org/2000/svg">
<path d="M8.0036 15C7.04289 15 6.13982 14.8151 5.29439 14.4452C4.45377 14.0801 3.71161 13.5757 3.06794 12.9321C2.42426 12.2884 1.91748 11.5462 1.54761 10.7056C1.18254 9.86018 1 8.95711 1 7.9964C1 7.04049 1.18254 6.13982 1.54761 5.29439C1.91268 4.44896 2.41705 3.70441 3.06073 3.06073C3.70921 2.41705 4.45377 1.91268 5.29439 1.54761C6.13982 1.18254 7.04049 1 7.9964 1C8.95231 1 9.85298 1.18254 10.6984 1.54761C11.5438 1.91268 12.2884 2.41705 12.9321 3.06073C13.5757 3.70441 14.0801 4.44896 14.4452 5.29439C14.8151 6.13982 15 7.04049 15 7.9964C15 8.95711 14.8175 9.86018 14.4524 10.7056C14.0873 11.5462 13.5829 12.2884 12.9393 12.9321C12.2956 13.5757 11.551 14.0801 10.7056 14.4452C9.86018 14.8151 8.95951 15 8.0036 15ZM12.2692 7.9964C12.2692 7.92434 12.2524 7.84989 12.2187 7.77303C12.1899 7.69617 12.1395 7.62172 12.0674 7.54967L8.97633 4.66752C8.86584 4.56665 8.76977 4.4946 8.68811 4.45136C8.61125 4.40813 8.52479 4.38652 8.42872 4.38652C8.28461 4.38652 8.16452 4.43695 8.06845 4.53783C7.97238 4.6387 7.92434 4.75639 7.92434 4.89089V6.41122H4.73237C4.43935 6.41122 4.21119 6.49288 4.04786 6.6562C3.88454 6.81472 3.80288 7.03809 3.80288 7.3263V8.68091C3.80288 8.96912 3.88454 9.19249 4.04786 9.351C4.21119 9.50472 4.43935 9.58157 4.73237 9.58157H7.92434V11.1163C7.92434 11.2604 7.96998 11.3805 8.06125 11.4766C8.15732 11.5679 8.2726 11.6135 8.4071 11.6135C8.50798 11.6135 8.60165 11.5919 8.68811 11.5486C8.77938 11.5006 8.87545 11.4334 8.97633 11.3469L12.0674 8.43592C12.1395 8.36387 12.1899 8.28941 12.2187 8.21256C12.2524 8.1357 12.2692 8.06365 12.2692 7.9964Z" fill="#1BBA69"/>
</svg>
