<svg width="16" height="16" viewBox="0 0 16 16" fill="none" xmlns="http://www.w3.org/2000/svg">
<path d="M8.0036 15C7.04289 15 6.13982 14.8151 5.29439 14.4452C4.45377 14.0801 3.71161 13.5757 3.06794 12.9321C2.42426 12.2884 1.91748 11.5462 1.54761 10.7056C1.18254 9.86018 1 8.95711 1 7.9964C1 7.04049 1.18254 6.13982 1.54761 5.29439C1.91268 4.44896 2.41705 3.70441 3.06073 3.06073C3.70921 2.41705 4.45377 1.91268 5.29439 1.54761C6.13982 1.18254 7.04049 1 7.9964 1C8.95231 1 9.85298 1.18254 10.6984 1.54761C11.5438 1.91268 12.2884 2.41705 12.9321 3.06073C13.5757 3.70441 14.0801 4.44896 14.4452 5.29439C14.8151 6.13982 15 7.04049 15 7.9964C15 8.95711 14.8175 9.86018 14.4524 10.7056C14.0873 11.5462 13.5829 12.2884 12.9393 12.9321C12.2956 13.5757 11.551 14.0801 10.7056 14.4452C9.86018 14.8151 8.95951 15 8.0036 15ZM6.74267 10.756L10.7056 8.42151C10.8161 8.35426 10.8881 8.2678 10.9218 8.16212C10.9602 8.05644 10.9602 7.95076 10.9218 7.84508C10.8833 7.73941 10.8113 7.65294 10.7056 7.58569L6.74267 5.24395C6.63218 5.1767 6.5169 5.14788 6.39681 5.15749C6.28152 5.1671 6.18065 5.21033 6.09418 5.28718C6.01252 5.35924 5.97169 5.45531 5.97169 5.5754V10.4246C5.97169 10.5495 6.01012 10.6504 6.08698 10.7272C6.16864 10.7993 6.26711 10.8425 6.3824 10.8569C6.50249 10.8665 6.62258 10.8329 6.74267 10.756Z" fill="#16A4E3"/>
</svg>
