<svg width="16" height="16" viewBox="0 0 16 16" fill="none" xmlns="http://www.w3.org/2000/svg">
<path d="M8.0036 15C7.04289 15 6.13982 14.8151 5.29439 14.4452C4.45377 14.0801 3.71161 13.5757 3.06794 12.9321C2.42426 12.2884 1.91748 11.5462 1.54761 10.7056C1.18254 9.86018 1 8.95711 1 7.9964C1 7.04049 1.18254 6.13982 1.54761 5.29439C1.91268 4.44896 2.41705 3.70441 3.06073 3.06073C3.70921 2.41705 4.45377 1.91268 5.29439 1.54761C6.13982 1.18254 7.04049 1 7.9964 1C8.95231 1 9.85298 1.18254 10.6984 1.54761C11.5438 1.91268 12.2884 2.41705 12.9321 3.06073C13.5757 3.70441 14.0801 4.44896 14.4452 5.29439C14.8151 6.13982 15 7.04049 15 7.9964C15 8.95711 14.8175 9.86018 14.4524 10.7056C14.0873 11.5462 13.5829 12.2884 12.9393 12.9321C12.2956 13.5757 11.551 14.0801 10.7056 14.4452C9.86018 14.8151 8.95951 15 8.0036 15ZM3.71642 7.9964C3.71642 8.06365 3.73083 8.1333 3.75965 8.20535C3.78847 8.27741 3.84131 8.34946 3.91817 8.42151L6.9228 11.2532C7.01887 11.3349 7.10774 11.3973 7.1894 11.4406C7.27586 11.4838 7.36713 11.5054 7.4632 11.5054C7.6025 11.5054 7.71779 11.4622 7.80906 11.3757C7.90033 11.2844 7.94596 11.1692 7.94596 11.0299V9.53834H11.0443C11.3277 9.53834 11.5486 9.46149 11.7072 9.30777C11.8657 9.15406 11.9449 8.9379 11.9449 8.65929V7.34071C11.9449 7.06691 11.8657 6.85315 11.7072 6.69943C11.5486 6.54092 11.3277 6.46166 11.0443 6.46166H7.94596V4.98456C7.94596 4.84526 7.90033 4.72757 7.80906 4.6315C7.71779 4.53062 7.5977 4.48019 7.44879 4.48019C7.35272 4.48019 7.26625 4.5042 7.1894 4.55224C7.11734 4.59547 7.02848 4.66512 6.9228 4.76119L3.91817 7.56408C3.84131 7.63613 3.78847 7.70818 3.75965 7.78024C3.73083 7.85229 3.71642 7.92434 3.71642 7.9964Z" fill="#CE0000"/>
</svg>
