<svg width="16" height="17" viewBox="0 0 16 17" fill="none" xmlns="http://www.w3.org/2000/svg">
<g opacity="0.7">
<path d="M4.64598 9.3799C4.48457 9.3799 4.34927 9.32528 4.24008 9.21603C4.13089 9.10679 4.0763 8.97379 4.0763 8.81705C4.0763 8.66031 4.13089 8.52731 4.24008 8.41807C4.34927 8.30882 4.48457 8.2542 4.64598 8.2542H7.43032V4.45674C7.43032 4.3 7.48491 4.16701 7.5941 4.05776C7.70329 3.94852 7.83622 3.89389 7.99288 3.89389C8.15429 3.89389 8.28722 3.94852 8.39166 4.05776C8.50085 4.16701 8.55544 4.3 8.55544 4.45674V8.81705C8.55544 8.97379 8.50085 9.10679 8.39166 9.21603C8.28722 9.32528 8.15429 9.3799 7.99288 9.3799H4.64598ZM8 15.5C7.04103 15.5 6.13903 15.3171 5.294 14.9514C4.44897 14.5857 3.70363 14.0798 3.05799 13.4338C2.41709 12.7926 1.91387 12.0493 1.54832 11.2038C1.18277 10.3584 1 9.45589 1 8.49644C1 7.53698 1.18277 6.6369 1.54832 5.79618C1.91387 4.95072 2.41709 4.205 3.05799 3.55903C3.70363 2.91306 4.44897 2.40958 5.294 2.0486C6.13903 1.68287 7.03866 1.5 7.99288 1.5C8.95185 1.5 9.85385 1.68287 10.6989 2.0486C11.5439 2.40958 12.2869 2.91306 12.9278 3.55903C13.5734 4.205 14.079 4.95072 14.4446 5.79618C14.8149 6.6369 15 7.53698 15 8.49644C15 9.45589 14.8172 10.3584 14.4517 11.2038C14.0861 12.0493 13.5805 12.7926 12.9349 13.4338C12.2893 14.0798 11.5439 14.5857 10.6989 14.9514C9.8586 15.3171 8.95897 15.5 8 15.5ZM8 14.0252C8.76907 14.0252 9.48593 13.8827 10.1506 13.5977C10.8199 13.3127 11.4062 12.9185 11.9095 12.415C12.4174 11.9068 12.8138 11.3178 13.0987 10.6481C13.3835 9.97837 13.5259 9.26115 13.5259 8.49644C13.5259 7.73172 13.3835 7.0145 13.0987 6.34478C12.8138 5.67506 12.4174 5.08846 11.9095 4.58499C11.4062 4.07676 10.8199 3.68015 10.1506 3.39517C9.48118 3.11018 8.76195 2.96768 7.99288 2.96768C7.22855 2.96768 6.5117 3.11018 5.84232 3.39517C5.17769 3.68015 4.59139 4.07676 4.08342 4.58499C3.5802 5.08846 3.18616 5.67506 2.90132 6.34478C2.61648 7.0145 2.47406 7.73172 2.47406 8.49644C2.47406 9.26115 2.61648 9.97837 2.90132 10.6481C3.18616 11.3178 3.5802 11.9068 4.08342 12.415C4.59139 12.9185 5.18006 13.3127 5.84944 13.5977C6.51882 13.8827 7.23567 14.0252 8 14.0252Z" fill="white"/>
</g>
</svg>
