<svg width="16" height="16" viewBox="0 0 16 16" fill="none" xmlns="http://www.w3.org/2000/svg">
<path d="M5.9375 5.32031C5.83594 5.32031 5.75 5.28711 5.67969 5.2207C5.61328 5.1543 5.58008 5.07031 5.58008 4.96875C5.58008 4.875 5.61328 4.79492 5.67969 4.72852C5.75 4.66211 5.83594 4.62891 5.9375 4.62891H10.0625C10.1602 4.62891 10.2422 4.66211 10.3086 4.72852C10.375 4.79492 10.4082 4.875 10.4082 4.96875C10.4082 5.07031 10.375 5.1543 10.3086 5.2207C10.2422 5.28711 10.1602 5.32031 10.0625 5.32031H5.9375ZM5.9375 7.23633C5.83594 7.23633 5.75 7.20312 5.67969 7.13672C5.61328 7.06641 5.58008 6.98242 5.58008 6.88477C5.58008 6.78711 5.61328 6.70703 5.67969 6.64453C5.75 6.57812 5.83594 6.54492 5.9375 6.54492H10.0625C10.1602 6.54492 10.2422 6.57812 10.3086 6.64453C10.375 6.70703 10.4082 6.78711 10.4082 6.88477C10.4082 6.98242 10.375 7.06641 10.3086 7.13672C10.2422 7.20312 10.1602 7.23633 10.0625 7.23633H5.9375ZM5.9375 9.14648C5.83594 9.14648 5.75 9.11523 5.67969 9.05273C5.61328 8.98633 5.58008 8.9043 5.58008 8.80664C5.58008 8.70898 5.61328 8.62695 5.67969 8.56055C5.75 8.49023 5.83594 8.45508 5.9375 8.45508H7.90625C8.00781 8.45508 8.0918 8.49023 8.1582 8.56055C8.22461 8.62695 8.25781 8.70898 8.25781 8.80664C8.25781 8.9043 8.22461 8.98633 8.1582 9.05273C8.0918 9.11523 8.00781 9.14648 7.90625 9.14648H5.9375ZM3.2832 12.1934V3.80859C3.2832 3.21875 3.43164 2.77539 3.72852 2.47852C4.02539 2.17773 4.46484 2.02734 5.04688 2.02734H10.9414C11.5273 2.02734 11.9668 2.17773 12.2598 2.47852C12.5566 2.77539 12.7051 3.21875 12.7051 3.80859V12.1934C12.7051 12.7832 12.5566 13.2266 12.2598 13.5234C11.9668 13.8203 11.5273 13.9688 10.9414 13.9688H5.04688C4.46484 13.9688 4.02539 13.8203 3.72852 13.5234C3.43164 13.2266 3.2832 12.7832 3.2832 12.1934ZM4.28516 12.1465C4.28516 12.416 4.35352 12.6211 4.49023 12.7617C4.63086 12.9062 4.83984 12.9785 5.11719 12.9785H10.8711C11.1484 12.9785 11.3574 12.9062 11.498 12.7617C11.6387 12.6211 11.709 12.416 11.709 12.1465V3.85547C11.709 3.58594 11.6387 3.38086 11.498 3.24023C11.3574 3.09961 11.1484 3.0293 10.8711 3.0293H5.11719C4.83984 3.0293 4.63086 3.09961 4.49023 3.24023C4.35352 3.38086 4.28516 3.58594 4.28516 3.85547V12.1465Z" fill="#7E7E7E"/>
</svg>
