<svg width="16" height="16" viewBox="0 0 16 16" fill="none" xmlns="http://www.w3.org/2000/svg">
<path d="M0.101562 7.99805C0.101562 7.91211 0.119141 7.82812 0.154297 7.74609C0.193359 7.66016 0.25 7.58594 0.324219 7.52344L3.96289 4.23633C4.0957 4.11523 4.24023 4.05664 4.39648 4.06055C4.55664 4.06445 4.69336 4.12891 4.80664 4.25391C4.91992 4.375 4.96875 4.51562 4.95312 4.67578C4.9375 4.83594 4.86719 4.97266 4.74219 5.08594L1.53125 7.99805L4.74219 10.9102C4.86719 11.0234 4.9375 11.1602 4.95312 11.3203C4.96875 11.4766 4.91992 11.6172 4.80664 11.7422C4.69336 11.8672 4.55664 11.9316 4.39648 11.9355C4.24023 11.9355 4.0957 11.875 3.96289 11.7539L0.324219 8.47266C0.25 8.41016 0.193359 8.33789 0.154297 8.25586C0.119141 8.16992 0.101562 8.08398 0.101562 7.99805ZM6.4707 13.2715C6.29883 13.2285 6.18164 13.1348 6.11914 12.9902C6.05664 12.8496 6.05078 12.6953 6.10156 12.5273L8.82617 3.16406C8.88477 2.97266 8.98047 2.84375 9.11328 2.77734C9.24609 2.70703 9.39453 2.69531 9.55859 2.74219C9.72656 2.78516 9.8457 2.875 9.91602 3.01172C9.98633 3.14453 10 3.28906 9.95703 3.44531L7.20898 12.8496C7.16211 13.0176 7.06836 13.1406 6.92773 13.2187C6.79102 13.3008 6.63867 13.3184 6.4707 13.2715ZM15.8984 7.99805C15.8984 8.08398 15.8809 8.16992 15.8457 8.25586C15.8105 8.33789 15.7559 8.41016 15.6816 8.47266L12.043 11.7539C11.9062 11.875 11.7578 11.9355 11.5977 11.9355C11.4414 11.9316 11.3086 11.8672 11.1992 11.7422C11.0898 11.6172 11.041 11.4766 11.0527 11.3203C11.0645 11.1602 11.1348 11.0234 11.2637 10.9102L14.4746 7.99805L11.2637 5.08594C11.1348 4.97266 11.0645 4.83594 11.0527 4.67578C11.041 4.51562 11.0898 4.375 11.1992 4.25391C11.3086 4.12891 11.4414 4.06445 11.5977 4.06055C11.7578 4.05664 11.9062 4.11523 12.043 4.23633L15.6816 7.52344C15.7559 7.58594 15.8105 7.66016 15.8457 7.74609C15.8809 7.82812 15.8984 7.91211 15.8984 7.99805Z" fill="#7E7E7E"/>
</svg>
