<svg width="16" height="16" viewBox="0 0 16 16" fill="none" xmlns="http://www.w3.org/2000/svg">
<path d="M2.55664 6.97266C2.55664 6.35547 2.67188 5.77734 2.90234 5.23828C3.13281 4.69531 3.45312 4.2207 3.86328 3.81445C4.27344 3.4043 4.74805 3.08398 5.28711 2.85352C5.82617 2.61914 6.4043 2.50195 7.02148 2.50195C7.64258 2.50195 8.22266 2.61914 8.76172 2.85352C9.30078 3.08398 9.77539 3.4043 10.1855 3.81445C10.5957 4.2207 10.916 4.69531 11.1465 5.23828C11.377 5.77734 11.4922 6.35547 11.4922 6.97266C11.4922 7.46484 11.416 7.93555 11.2637 8.38477C11.1113 8.83008 10.8965 9.23633 10.6191 9.60352L13.2383 12.2285C13.3047 12.3027 13.3555 12.3848 13.3906 12.4746C13.4258 12.5645 13.4434 12.6562 13.4434 12.75C13.4434 12.8945 13.4121 13.0215 13.3496 13.1309C13.2871 13.2441 13.2012 13.332 13.0918 13.3945C12.9824 13.4609 12.8574 13.4941 12.7168 13.4941C12.6191 13.4941 12.5234 13.4766 12.4297 13.4414C12.3359 13.4102 12.2539 13.3594 12.1836 13.2891L9.54688 10.6465C9.1875 10.8965 8.79492 11.0918 8.36914 11.2324C7.94336 11.373 7.49414 11.4434 7.02148 11.4434C6.4043 11.4434 5.82617 11.3281 5.28711 11.0977C4.74805 10.8672 4.27344 10.5469 3.86328 10.1367C3.45312 9.72656 3.13281 9.25195 2.90234 8.71289C2.67188 8.16992 2.55664 7.58984 2.55664 6.97266ZM3.62305 6.97266C3.62305 7.44141 3.71094 7.88281 3.88672 8.29688C4.0625 8.70703 4.30664 9.06836 4.61914 9.38086C4.93164 9.68945 5.29297 9.93164 5.70312 10.1074C6.11328 10.2832 6.55273 10.3711 7.02148 10.3711C7.49023 10.3711 7.92969 10.2832 8.33984 10.1074C8.75391 9.93164 9.11523 9.68945 9.42383 9.38086C9.73633 9.06836 9.98047 8.70703 10.1562 8.29688C10.332 7.88281 10.4199 7.44141 10.4199 6.97266C10.4199 6.50391 10.332 6.06445 10.1562 5.6543C9.98047 5.24023 9.73633 4.87891 9.42383 4.57031C9.11523 4.25781 8.75391 4.01367 8.33984 3.83789C7.92969 3.66211 7.49023 3.57422 7.02148 3.57422C6.55273 3.57422 6.11328 3.66211 5.70312 3.83789C5.29297 4.01367 4.93164 4.25781 4.61914 4.57031C4.30664 4.87891 4.0625 5.24023 3.88672 5.6543C3.71094 6.06445 3.62305 6.50391 3.62305 6.97266ZM5.32812 6.63281C5.21484 6.63281 5.12109 6.59375 5.04688 6.51562C4.97266 6.4375 4.93555 6.34375 4.93555 6.23438C4.93555 6.12109 4.97266 6.02734 5.04688 5.95312C5.12109 5.875 5.21484 5.83594 5.32812 5.83594H8.74414C8.85352 5.83594 8.94531 5.875 9.01953 5.95312C9.09375 6.02734 9.13086 6.12109 9.13086 6.23438C9.13086 6.34375 9.0918 6.4375 9.01367 6.51562C8.93945 6.59375 8.84961 6.63281 8.74414 6.63281H5.32812ZM5.32812 8.10352C5.21484 8.10352 5.12109 8.06641 5.04688 7.99219C4.97266 7.91406 4.93555 7.81836 4.93555 7.70508C4.93555 7.59961 4.97266 7.50781 5.04688 7.42969C5.12109 7.34766 5.21484 7.30664 5.32812 7.30664H7.79492C7.9082 7.30664 8.00195 7.3457 8.07617 7.42383C8.1543 7.50195 8.19336 7.5957 8.19336 7.70508C8.19336 7.81836 8.1543 7.91406 8.07617 7.99219C8.00195 8.06641 7.9082 8.10352 7.79492 8.10352H5.32812Z" fill="#7E7E7E"/>
</svg>
