<svg width="16" height="16" viewBox="0 0 16 16" fill="none" xmlns="http://www.w3.org/2000/svg">
<path d="M8 13.6934C7.21875 13.6934 6.48438 13.543 5.79688 13.2422C5.11328 12.9453 4.50977 12.5352 3.98633 12.0117C3.46289 11.4883 3.05078 10.8848 2.75 10.2012C2.45312 9.51367 2.30469 8.7793 2.30469 7.99805C2.30469 7.2207 2.45312 6.48828 2.75 5.80078C3.04688 5.11328 3.45703 4.50781 3.98047 3.98438C4.50781 3.46094 5.11328 3.05078 5.79688 2.75391C6.48438 2.45703 7.2168 2.30859 7.99414 2.30859C8.77148 2.30859 9.50391 2.45703 10.1914 2.75391C10.8789 3.05078 11.4844 3.46094 12.0078 3.98438C12.5312 4.50781 12.9414 5.11328 13.2383 5.80078C13.5391 6.48828 13.6895 7.2207 13.6895 7.99805C13.6895 8.7793 13.541 9.51367 13.2441 10.2012C12.9473 10.8848 12.5371 11.4883 12.0137 12.0117C11.4902 12.5352 10.8848 12.9453 10.1973 13.2422C9.50977 13.543 8.77734 13.6934 8 13.6934ZM8 12.6504C8.64453 12.6504 9.24805 12.5293 9.81055 12.2871C10.373 12.0488 10.8672 11.7168 11.293 11.291C11.7188 10.8652 12.0508 10.3711 12.2891 9.80859C12.5273 9.24609 12.6465 8.64258 12.6465 7.99805C12.6465 7.35352 12.5273 6.75 12.2891 6.1875C12.0508 5.625 11.7188 5.13086 11.293 4.70508C10.8672 4.2793 10.3711 3.94727 9.80469 3.70898C9.24219 3.4707 8.63867 3.35156 7.99414 3.35156C7.34961 3.35156 6.74609 3.4707 6.18359 3.70898C5.625 3.94727 5.13281 4.2793 4.70703 4.70508C4.28125 5.13086 3.94922 5.625 3.71094 6.1875C3.47266 6.75 3.35352 7.35352 3.35352 7.99805C3.35352 8.64258 3.47266 9.24609 3.71094 9.80859C3.94922 10.3711 4.28125 10.8652 4.70703 11.291C5.13281 11.7168 5.62695 12.0488 6.18945 12.2871C6.75195 12.5293 7.35547 12.6504 8 12.6504ZM7.99414 8.95898C7.68945 8.95898 7.5332 8.80469 7.52539 8.49609L7.44922 5.68945C7.44531 5.5332 7.49414 5.40625 7.5957 5.30859C7.69727 5.21094 7.82812 5.16211 7.98828 5.16211C8.14453 5.16211 8.27539 5.21289 8.38086 5.31445C8.48633 5.41211 8.53711 5.53906 8.5332 5.69531L8.45117 8.49609C8.44336 8.80469 8.29102 8.95898 7.99414 8.95898ZM7.99414 10.7754C7.82617 10.7754 7.67969 10.7188 7.55469 10.6055C7.43359 10.4883 7.37305 10.3477 7.37305 10.1836C7.37305 10.0195 7.43359 9.88086 7.55469 9.76758C7.67578 9.65039 7.82227 9.5918 7.99414 9.5918C8.16602 9.5918 8.3125 9.64844 8.43359 9.76172C8.55859 9.875 8.62109 10.0156 8.62109 10.1836C8.62109 10.3516 8.55859 10.4922 8.43359 10.6055C8.3125 10.7188 8.16602 10.7754 7.99414 10.7754Z" fill="#7E7E7E"/>
</svg>
