<svg xmlns="http://www.w3.org/2000/svg" width="354" height="369">
    <path fill="#06B3FF" fill-rule="evenodd" d="M148.132 9.371L20.347 102.132A49.348 49.348 0 0 0 .006 142.068v84.845a49.347 49.347 0 0 0 20.341 39.935l127.785 92.762c17.224 12.504 40.516 12.504 57.74 0l127.785-92.762a49.347 49.347 0 0 0 20.341-39.935v-84.845a49.348 49.348 0 0 0-20.341-39.936L205.872 9.371c-17.224-12.504-40.516-12.504-57.74 0zm15.05 225.98l-43.729-31.744c-12.983-9.424-12.983-28.809 0-38.233l43.729-31.745a23.517 23.517 0 0 1 27.639 0l43.73 31.745c12.983 9.424 12.983 28.809 0 38.233l-43.73 31.744a23.514 23.514 0 0 1-27.639 0z"/>
</svg>
