<svg width="12.000000" height="12.000000" viewBox="0 0 12 12" fill="none" xmlns="http://www.w3.org/2000/svg" xmlns:xlink="http://www.w3.org/1999/xlink">
	<desc>
			Created with Pixso.
	</desc>
	<defs/>
	<path id="Rating" d="M3.6 6.62C3.48 6.62 3.39 6.58 3.31 6.51C3.23 6.43 3.19 6.33 3.19 6.22C3.19 6.11 3.23 6.01 3.31 5.94C3.39 5.86 3.48 5.82 3.6 5.82L5.59 5.82L5.59 3.11C5.59 3 5.63 2.9 5.71 2.82C5.78 2.74 5.88 2.7 5.99 2.7C6.11 2.7 6.2 2.74 6.27 2.82C6.35 2.9 6.39 3 6.39 3.11L6.39 6.22C6.39 6.33 6.35 6.43 6.27 6.51C6.2 6.58 6.11 6.62 5.99 6.62L3.6 6.62ZM6 11C5.31 11 4.67 10.86 4.06 10.6C3.46 10.34 2.93 9.98 2.46 9.52C2.01 9.06 1.65 8.53 1.39 7.93C1.13 7.32 1 6.68 1 5.99C1 5.31 1.13 4.66 1.39 4.06C1.65 3.46 2.01 2.93 2.46 2.47C2.93 2 3.46 1.64 4.06 1.39C4.67 1.13 5.31 1 5.99 1C6.67 1 7.32 1.13 7.92 1.39C8.53 1.64 9.06 2 9.51 2.47C9.98 2.93 10.34 3.46 10.6 4.06C10.86 4.66 11 5.31 11 5.99C11 6.68 10.86 7.32 10.6 7.93C10.34 8.53 9.98 9.06 9.52 9.52C9.06 9.98 8.53 10.34 7.92 10.6C7.32 10.86 6.68 11 6 11ZM6 9.94C6.54 9.94 7.06 9.84 7.53 9.64C8.01 9.43 8.43 9.15 8.79 8.79C9.15 8.43 9.43 8.01 9.64 7.53C9.84 7.05 9.94 6.54 9.94 5.99C9.94 5.45 9.84 4.93 9.64 4.46C9.43 3.98 9.15 3.56 8.79 3.2C8.43 2.84 8.01 2.55 7.53 2.35C7.05 2.15 6.54 2.04 5.99 2.04C5.44 2.04 4.93 2.15 4.45 2.35C3.98 2.55 3.56 2.84 3.2 3.2C2.84 3.56 2.56 3.98 2.35 4.46C2.15 4.93 2.05 5.45 2.05 5.99C2.05 6.54 2.15 7.05 2.35 7.53C2.56 8.01 2.84 8.43 3.2 8.79C3.56 9.15 3.98 9.43 4.46 9.64C4.94 9.84 5.45 9.94 6 9.94Z" fill="#B0B0B0" fill-opacity="1.000000" fill-rule="nonzero"/>
</svg>
