<svg width="16" height="17" viewBox="0 0 16 17" fill="none" xmlns="http://www.w3.org/2000/svg">
<path d="M7.97656 14.4531C7.16016 14.4531 6.39062 14.2969 5.66797 13.9844C4.94922 13.6719 4.31445 13.2402 3.76367 12.6895C3.21289 12.1387 2.78125 11.5039 2.46875 10.7852C2.15625 10.0625 2 9.29297 2 8.47656C2 7.66016 2.15625 6.89258 2.46875 6.17383C2.78125 5.45117 3.21094 4.81445 3.75781 4.26367C4.30859 3.71289 4.94336 3.28125 5.66211 2.96875C6.38477 2.65625 7.1543 2.5 7.9707 2.5C8.78711 2.5 9.55664 2.65625 10.2793 2.96875C11.002 3.28125 11.6387 3.71289 12.1895 4.26367C12.7402 4.81445 13.1719 5.45117 13.4844 6.17383C13.7969 6.89258 13.9531 7.66016 13.9531 8.47656C13.9531 9.29297 13.7969 10.0625 13.4844 10.7852C13.1719 11.5039 12.7402 12.1387 12.1895 12.6895C11.6387 13.2402 11.002 13.6719 10.2793 13.9844C9.56055 14.2969 8.79297 14.4531 7.97656 14.4531ZM7.31445 11.3359C7.41602 11.3359 7.50781 11.3125 7.58984 11.2656C7.67188 11.2188 7.74414 11.1484 7.80664 11.0547L10.5605 6.71289C10.5957 6.6543 10.6289 6.5918 10.6602 6.52539C10.6914 6.45898 10.707 6.39258 10.707 6.32617C10.707 6.18945 10.6562 6.08203 10.5547 6.00391C10.4531 5.92188 10.3398 5.88086 10.2148 5.88086C10.043 5.88086 9.90234 5.9707 9.79297 6.15039L7.29102 10.1699L6.10156 8.63477C6.02734 8.53711 5.95508 8.4707 5.88477 8.43555C5.81836 8.40039 5.74219 8.38281 5.65625 8.38281C5.52344 8.38281 5.41211 8.43164 5.32227 8.5293C5.23242 8.62305 5.1875 8.73633 5.1875 8.86914C5.1875 8.93555 5.19922 9.00195 5.22266 9.06836C5.25 9.13086 5.28516 9.19141 5.32812 9.25L6.79883 11.0547C6.87695 11.1562 6.95703 11.2285 7.03906 11.2715C7.12109 11.3145 7.21289 11.3359 7.31445 11.3359Z" fill="#1BBA69"/>
</svg>
