<svg width="16" height="16" viewBox="0 0 16 16" fill="none" xmlns="http://www.w3.org/2000/svg">
<circle cx="8" cy="8" r="8" fill="#DA7B24"/>
<path d="M6.35547 7.68359C6.2487 7.68359 6.15755 7.64583 6.08203 7.57031C6.00651 7.49219 5.96875 7.40104 5.96875 7.29688C5.96875 7.1901 6.00651 7.09896 6.08203 7.02344C6.15755 6.94792 6.2487 6.91016 6.35547 6.91016C6.46224 6.91016 6.55339 6.94792 6.62891 7.02344C6.70443 7.09635 6.74219 7.1875 6.74219 7.29688C6.74219 7.40365 6.70443 7.49479 6.62891 7.57031C6.55339 7.64583 6.46224 7.68359 6.35547 7.68359ZM6.35547 9.11328C6.24609 9.11328 6.15365 9.07552 6.07812 9C6.00521 8.92448 5.96875 8.83333 5.96875 8.72656C5.96875 8.61979 6.00651 8.52995 6.08203 8.45703C6.15755 8.38151 6.2487 8.34375 6.35547 8.34375C6.46224 8.34375 6.55339 8.38021 6.62891 8.45312C6.70443 8.52604 6.74219 8.61719 6.74219 8.72656C6.74219 8.83333 6.70443 8.92448 6.62891 9C6.55339 9.07552 6.46224 9.11328 6.35547 9.11328ZM6.35547 10.625C6.2487 10.625 6.15755 10.5872 6.08203 10.5117C6.00651 10.4362 5.96875 10.3451 5.96875 10.2383C5.96875 10.1315 6.00651 10.0404 6.08203 9.96484C6.15755 9.88932 6.2487 9.85156 6.35547 9.85156C6.46224 9.85156 6.55339 9.88932 6.62891 9.96484C6.70443 10.0404 6.74219 10.1315 6.74219 10.2383C6.74219 10.3451 6.70443 10.4362 6.62891 10.5117C6.55339 10.5872 6.46224 10.625 6.35547 10.625ZM7.48828 7.60547C7.40234 7.60547 7.32812 7.57552 7.26562 7.51562C7.20573 7.45312 7.17578 7.38021 7.17578 7.29688C7.17578 7.21094 7.20573 7.13672 7.26562 7.07422C7.32812 7.01172 7.40234 6.98047 7.48828 6.98047H9.71875C9.80469 6.98047 9.8776 7.01172 9.9375 7.07422C10 7.13672 10.0312 7.21094 10.0312 7.29688C10.0312 7.38021 10 7.45312 9.9375 7.51562C9.8776 7.57552 9.80469 7.60547 9.71875 7.60547H7.48828ZM7.48828 9.03906C7.39974 9.03906 7.32552 9.00911 7.26562 8.94922C7.20573 8.88672 7.17578 8.8125 7.17578 8.72656C7.17578 8.64062 7.20573 8.56771 7.26562 8.50781C7.32552 8.44792 7.39974 8.41797 7.48828 8.41797H9.71875C9.80469 8.41797 9.8776 8.44792 9.9375 8.50781C10 8.56771 10.0312 8.64062 10.0312 8.72656C10.0312 8.8125 10.0013 8.88672 9.94141 8.94922C9.88151 9.00911 9.80729 9.03906 9.71875 9.03906H7.48828ZM7.48828 10.5508C7.40234 10.5508 7.32812 10.5208 7.26562 10.4609C7.20573 10.3984 7.17578 10.3242 7.17578 10.2383C7.17578 10.1523 7.20573 10.0807 7.26562 10.0234C7.32552 9.96354 7.39974 9.93359 7.48828 9.93359H9.71875C9.80469 9.93359 9.8776 9.96354 9.9375 10.0234C10 10.0807 10.0312 10.1523 10.0312 10.2383C10.0312 10.3242 10 10.3984 9.9375 10.4609C9.8776 10.5208 9.80469 10.5508 9.71875 10.5508H7.48828ZM5.92969 12.75H10.0703C10.4948 12.75 10.8203 12.6354 11.0469 12.4062C11.2734 12.1771 11.3867 11.8477 11.3867 11.418V5.51562C11.3867 5.08594 11.2747 4.75651 11.0508 4.52734C10.8268 4.29557 10.5091 4.17969 10.0977 4.17969H10.0234C10.0339 4.20573 10.0417 4.23438 10.0469 4.26562C10.0521 4.29427 10.0547 4.32292 10.0547 4.35156V4.80078C10.0547 5.05599 9.97526 5.26693 9.81641 5.43359C9.66016 5.59766 9.45443 5.67969 9.19922 5.67969H6.79688C6.54427 5.67969 6.33854 5.59766 6.17969 5.43359C6.02344 5.26693 5.94531 5.05599 5.94531 4.80078V4.35156C5.94531 4.32292 5.94792 4.29427 5.95312 4.26562C5.95833 4.23438 5.96615 4.20573 5.97656 4.17969H5.89844C5.48958 4.17969 5.17318 4.29557 4.94922 4.52734C4.72526 4.75651 4.61328 5.08594 4.61328 5.51562V11.418C4.61328 11.8477 4.72656 12.1771 4.95312 12.4062C5.17969 12.6354 5.50521 12.75 5.92969 12.75ZM6.79688 5.21094H9.19922C9.32161 5.21094 9.41667 5.17578 9.48438 5.10547C9.55208 5.03255 9.58594 4.93099 9.58594 4.80078V4.39062C9.58594 4.26042 9.55208 4.16016 9.48438 4.08984C9.41667 4.01693 9.32161 3.98047 9.19922 3.98047H8.89062C8.875 3.74609 8.78125 3.54818 8.60938 3.38672C8.4401 3.22266 8.23698 3.14062 8 3.14062C7.76302 3.14062 7.55859 3.22266 7.38672 3.38672C7.21745 3.54818 7.125 3.74609 7.10938 3.98047H6.79688C6.67708 3.98047 6.58333 4.01693 6.51562 4.08984C6.44792 4.16016 6.41406 4.26042 6.41406 4.39062V4.80078C6.41406 4.93099 6.44792 5.03255 6.51562 5.10547C6.58333 5.17578 6.67708 5.21094 6.79688 5.21094ZM8 4.35938C7.90365 4.35938 7.82161 4.32552 7.75391 4.25781C7.6862 4.1875 7.65234 4.10547 7.65234 4.01172C7.65234 3.91536 7.6862 3.83333 7.75391 3.76562C7.82161 3.69792 7.90365 3.66406 8 3.66406C8.09635 3.66406 8.17839 3.69792 8.24609 3.76562C8.3138 3.83333 8.34766 3.91536 8.34766 4.01172C8.34766 4.10547 8.3138 4.1875 8.24609 4.25781C8.17839 4.32552 8.09635 4.35938 8 4.35938Z" fill="white"/>
</svg>
