<svg width="16" height="16" viewBox="0 0 16 16" fill="none" xmlns="http://www.w3.org/2000/svg">
<rect width="16" height="16" rx="8" fill="#FF7002"/>
<path d="M8.00435 9.71323C7.79523 9.71323 7.63338 9.65308 7.5188 9.53276C7.40708 9.41245 7.34836 9.24487 7.34263 9.03003L7.26099 4.91792C7.26099 4.88927 7.25955 4.86206 7.25669 4.83628C7.25669 4.80763 7.25669 4.78328 7.25669 4.76323C7.25669 4.53407 7.32544 4.3536 7.46294 4.22183C7.60044 4.09006 7.78091 4.02417 8.00435 4.02417C8.23065 4.02417 8.41112 4.09006 8.54575 4.22183C8.68039 4.3536 8.74771 4.53407 8.74771 4.76323C8.74771 4.78328 8.74771 4.80763 8.74771 4.83628C8.74771 4.86206 8.74627 4.88927 8.74341 4.91792L8.67036 9.03003C8.66463 9.24487 8.60448 9.41245 8.48989 9.53276C8.37531 9.65308 8.21346 9.71323 8.00435 9.71323ZM8.00435 12.2441C7.84393 12.2441 7.69784 12.2069 7.56606 12.1324C7.43429 12.0579 7.3283 11.9562 7.2481 11.8273C7.17075 11.7013 7.13208 11.5609 7.13208 11.4062C7.13208 11.2515 7.17075 11.1111 7.2481 10.9851C7.3283 10.8591 7.43429 10.7588 7.56606 10.6843C7.69784 10.6098 7.84393 10.5726 8.00435 10.5726C8.1619 10.5726 8.30656 10.6098 8.43833 10.6843C8.5701 10.7588 8.67466 10.8591 8.752 10.9851C8.82935 11.1111 8.86802 11.2515 8.86802 11.4062C8.86802 11.5609 8.82935 11.7013 8.752 11.8273C8.67466 11.9562 8.5701 12.0579 8.43833 12.1324C8.30656 12.2069 8.1619 12.2441 8.00435 12.2441Z" fill="white"/>
</svg>
