<svg width="16" height="16" viewBox="0 0 16 16" fill="none" xmlns="http://www.w3.org/2000/svg">
<circle cx="8" cy="8" r="8" fill="#52B462"/>
<path d="M4.07031 7.50781C4.07031 7.96354 4.15495 8.39062 4.32422 8.78906C4.49609 9.1849 4.73307 9.53385 5.03516 9.83594C5.33724 10.138 5.6862 10.375 6.08203 10.5469C6.48047 10.7161 6.90755 10.8008 7.36328 10.8008C7.66276 10.8008 7.95052 10.7604 8.22656 10.6797C8.50521 10.599 8.76302 10.487 9 10.3438L10.5703 11.9141C10.6458 11.9896 10.7331 12.0456 10.832 12.082C10.931 12.1211 11.0339 12.1406 11.1406 12.1406C11.2917 12.1406 11.4258 12.1055 11.543 12.0352C11.6628 11.9648 11.7565 11.8698 11.8242 11.75C11.8919 11.6302 11.9258 11.4961 11.9258 11.3477C11.9258 11.2435 11.9062 11.1432 11.8672 11.0469C11.8307 10.9531 11.7747 10.8672 11.6992 10.7891L10.1484 9.23047C10.3073 8.98568 10.431 8.71745 10.5195 8.42578C10.6081 8.13411 10.6523 7.82812 10.6523 7.50781C10.6523 7.05469 10.5664 6.63021 10.3945 6.23438C10.2253 5.83594 9.98958 5.48568 9.6875 5.18359C9.38542 4.88151 9.03516 4.64583 8.63672 4.47656C8.24089 4.30469 7.81641 4.21875 7.36328 4.21875C6.90755 4.21875 6.48047 4.30469 6.08203 4.47656C5.6862 4.64583 5.33724 4.88151 5.03516 5.18359C4.73307 5.48568 4.49609 5.83594 4.32422 6.23438C4.15495 6.63021 4.07031 7.05469 4.07031 7.50781ZM5.18359 7.50781C5.18359 7.20833 5.23958 6.92708 5.35156 6.66406C5.46615 6.40104 5.6224 6.17057 5.82031 5.97266C6.02083 5.77214 6.2526 5.61589 6.51562 5.50391C6.77865 5.38932 7.0612 5.33203 7.36328 5.33203C7.66276 5.33203 7.94401 5.38932 8.20703 5.50391C8.47005 5.61589 8.70052 5.77214 8.89844 5.97266C9.09896 6.17057 9.25521 6.40104 9.36719 6.66406C9.48177 6.92708 9.53906 7.20833 9.53906 7.50781C9.53906 7.8099 9.48177 8.09245 9.36719 8.35547C9.25521 8.61849 9.09896 8.85026 8.89844 9.05078C8.70052 9.2487 8.47005 9.40495 8.20703 9.51953C7.94401 9.63151 7.66276 9.6875 7.36328 9.6875C7.0612 9.6875 6.77865 9.63151 6.51562 9.51953C6.2526 9.40495 6.02083 9.2487 5.82031 9.05078C5.6224 8.85026 5.46615 8.61849 5.35156 8.35547C5.23958 8.09245 5.18359 7.8099 5.18359 7.50781ZM6.32812 7.3125H8.42578C8.51172 7.3125 8.58333 7.28125 8.64062 7.21875C8.69792 7.15625 8.72656 7.08464 8.72656 7.00391C8.72656 6.91797 8.69792 6.84505 8.64062 6.78516C8.58333 6.72526 8.51172 6.69531 8.42578 6.69531H6.32812C6.23958 6.69531 6.16667 6.72526 6.10938 6.78516C6.05208 6.84505 6.02344 6.91797 6.02344 7.00391C6.02344 7.08464 6.05208 7.15625 6.10938 7.21875C6.16927 7.28125 6.24219 7.3125 6.32812 7.3125ZM6.32812 8.32031H7.82031C7.90365 8.32031 7.97396 8.29036 8.03125 8.23047C8.09115 8.16797 8.12109 8.09505 8.12109 8.01172C8.12109 7.92839 8.09115 7.85677 8.03125 7.79688C7.97396 7.73438 7.90365 7.70312 7.82031 7.70312H6.32812C6.23958 7.70312 6.16667 7.73438 6.10938 7.79688C6.05208 7.85677 6.02344 7.92839 6.02344 8.01172C6.02344 8.09505 6.05208 8.16797 6.10938 8.23047C6.16927 8.29036 6.24219 8.32031 6.32812 8.32031Z" fill="white"/>
</svg>
