<svg width="16" height="16" viewBox="0 0 16 16" fill="none" xmlns="http://www.w3.org/2000/svg">
<path d="M11.9421 5.45743C11.7408 5.46146 11.5658 5.38901 11.4169 5.2401C11.272 5.09119 11.1995 4.91612 11.1995 4.71489C11.1995 4.51366 11.272 4.33859 11.4169 4.18968C11.5658 4.04076 11.7408 3.96631 11.9421 3.96631C12.1433 3.96631 12.3164 4.04076 12.4612 4.18968C12.6061 4.33859 12.6786 4.51366 12.6786 4.71489C12.6786 4.91612 12.6061 5.08918 12.4612 5.23406C12.3164 5.37895 12.1433 5.45341 11.9421 5.45743ZM11.9421 8.74756C11.7408 8.75158 11.5658 8.67914 11.4169 8.53023C11.272 8.38132 11.1995 8.20625 11.1995 8.00502C11.1995 7.80378 11.272 7.62871 11.4169 7.4798C11.5658 7.33089 11.7408 7.25644 11.9421 7.25644C12.1433 7.25644 12.3164 7.33089 12.4612 7.4798C12.6061 7.62469 12.6786 7.79976 12.6786 8.00502C12.6786 8.20625 12.6061 8.37931 12.4612 8.52419C12.3164 8.66908 12.1433 8.74353 11.9421 8.74756ZM11.9421 12.0316C11.7408 12.0357 11.5658 11.9632 11.4169 11.8143C11.272 11.6654 11.1995 11.4903 11.1995 11.2891C11.1995 11.0879 11.272 10.9128 11.4169 10.7639C11.5658 10.615 11.7408 10.5405 11.9421 10.5405C12.1433 10.5405 12.3164 10.615 12.4612 10.7639C12.6061 10.9128 12.6786 11.0879 12.6786 11.2891C12.6786 11.4903 12.6061 11.6634 12.4612 11.8083C12.3164 11.9532 12.1433 12.0276 11.9421 12.0316ZM14.5742 6.87007H1.43177V5.86191H14.5742V6.87007ZM14.5742 10.1662H1.43177V9.15807H14.5742V10.1662ZM2.8263 13.6435C2.17432 13.6435 1.6813 13.4785 1.34726 13.1485C1.01321 12.8185 0.846191 12.3315 0.846191 11.6875V4.33456C0.846191 3.69062 1.01321 3.20364 1.34726 2.87362C1.6813 2.53958 2.17432 2.37256 2.8263 2.37256H13.1615C13.8175 2.37256 14.3126 2.53958 14.6466 2.87362C14.9807 3.20364 15.1477 3.69062 15.1477 4.33456V11.6875C15.1477 12.3315 14.9807 12.8185 14.6466 13.1485C14.3126 13.4785 13.8175 13.6435 13.1615 13.6435H2.8263ZM2.89875 12.4603H13.0951C13.3728 12.4603 13.5861 12.3878 13.735 12.2429C13.884 12.094 13.9584 11.8747 13.9584 11.5849V4.43719C13.9584 4.14742 13.884 3.93009 13.735 3.7852C13.5861 3.63629 13.3728 3.56183 13.0951 3.56183H2.89875C2.61702 3.56183 2.40171 3.63629 2.2528 3.7852C2.10791 3.93009 2.03547 4.14742 2.03547 4.43719V11.5849C2.03547 11.8747 2.10791 12.094 2.2528 12.2429C2.40171 12.3878 2.61702 12.4603 2.89875 12.4603Z" fill="#B0B0B0"/>
</svg>
