<svg width="16" height="16" viewBox="0 0 16 16" fill="none" xmlns="http://www.w3.org/2000/svg">
<path d="M3.8949 12.9432V3.06072C3.8949 2.56167 4.05387 2.15921 4.37182 1.85334C4.69378 1.54747 5.11436 1.39453 5.63353 1.39453H10.3846C10.8998 1.39453 11.3123 1.54747 11.6222 1.85334C11.9361 2.15921 12.0931 2.56167 12.0931 3.06072V12.9432C12.0931 13.4422 11.9361 13.8447 11.6222 14.1506C11.3123 14.4564 10.8998 14.6094 10.3846 14.6094H5.63353C5.11436 14.6094 4.69378 14.4564 4.37182 14.1506C4.05387 13.8447 3.8949 13.4422 3.8949 12.9432ZM5.08417 12.3335H10.9098V3.67045H5.08417V12.3335ZM8.00605 13.9393C8.15496 13.9393 8.28375 13.8849 8.39241 13.7763C8.5051 13.6676 8.56145 13.5348 8.56145 13.3778C8.56145 13.2249 8.5051 13.0941 8.39241 12.9854C8.28375 12.8768 8.15496 12.8224 8.00605 12.8224C7.84909 12.8224 7.71426 12.8768 7.60157 12.9854C7.49291 13.0941 7.43858 13.2249 7.43858 13.3778C7.43858 13.5348 7.49291 13.6676 7.60157 13.7763C7.71426 13.8849 7.84909 13.9393 8.00605 13.9393ZM6.76848 2.5657C6.76848 2.64619 6.79262 2.70857 6.84092 2.75284C6.88922 2.79711 6.9516 2.81925 7.02807 2.81925H8.96592C9.04239 2.81925 9.10477 2.79711 9.15307 2.75284C9.20136 2.70857 9.22551 2.64619 9.22551 2.5657C9.22551 2.48923 9.20136 2.42886 9.15307 2.38459C9.10477 2.33629 9.04239 2.31214 8.96592 2.31214H7.02807C6.9516 2.31214 6.88922 2.33629 6.84092 2.38459C6.79262 2.42886 6.76848 2.48923 6.76848 2.5657Z" fill="#B0B0B0"/>
</svg>
