<svg width="16" height="16" viewBox="0 0 16 16" fill="none" xmlns="http://www.w3.org/2000/svg">
<path d="M0 11.6959C0 11.5116 0.0670062 11.3551 0.201019 11.2264C0.335031 11.0943 0.498019 11.0282 0.689983 11.0282H1.84177V4.87789C1.84177 4.47448 1.95767 4.1667 2.18947 3.95456C2.42128 3.74242 2.74001 3.63635 3.14567 3.63635H12.8543C13.2781 3.63635 13.6005 3.74242 13.8214 3.95456C14.046 4.1667 14.1582 4.47448 14.1582 4.87789V11.0282H15.31C15.502 11.0282 15.665 11.0943 15.799 11.2264C15.933 11.3551 16 11.5116 16 11.6959C16 11.8767 15.933 12.0332 15.799 12.1654C15.665 12.2975 15.502 12.3636 15.31 12.3636H0.689983C0.498019 12.3636 0.335031 12.2975 0.201019 12.1654C0.0670062 12.0332 0 11.8767 0 11.6959ZM2.90662 11.0282H13.0934V5.14915C13.0934 4.98222 13.0499 4.85876 12.963 4.77877C12.8797 4.69879 12.7547 4.65879 12.5881 4.65879H3.41188C3.24527 4.65879 3.11851 4.69879 3.03158 4.77877C2.94827 4.85876 2.90662 4.98222 2.90662 5.14915V11.0282Z" fill="#B0B0B0"/>
</svg>
