<svg width="16" height="16" viewBox="0 0 16 16" fill="none" xmlns="http://www.w3.org/2000/svg">
<path d="M3.51457 10.0575C2.93905 10.0575 2.50439 9.91261 2.21059 9.62284C1.9168 9.32904 1.7699 8.90042 1.7699 8.33697V1.95593C1.7699 1.39249 1.9168 0.963863 2.21059 0.670066C2.50842 0.376269 2.94307 0.22937 3.51457 0.22937H12.4734C13.0529 0.22937 13.4896 0.376269 13.7834 0.670066C14.0772 0.959839 14.2241 1.38846 14.2241 1.95593V8.33697C14.2241 8.90042 14.0772 9.32904 13.7834 9.62284C13.4896 9.91261 13.0529 10.0575 12.4734 10.0575H3.51457ZM3.58098 8.96481H12.419C12.6525 8.96481 12.8296 8.90444 12.9503 8.7837C13.0751 8.65894 13.1374 8.47783 13.1374 8.24038V2.05252C13.1374 1.80702 13.0751 1.62189 12.9503 1.49713C12.8296 1.37236 12.6525 1.30998 12.419 1.30998H3.58098C3.34352 1.30998 3.16242 1.37236 3.03765 1.49713C2.91691 1.62189 2.85655 1.80702 2.85655 2.05252V8.24038C2.85655 8.48588 2.91691 8.669 3.03765 8.78974C3.16242 8.90645 3.34352 8.96481 3.58098 8.96481ZM13.6506 8.02909C13.6707 8.53216 13.552 8.91651 13.2944 9.18214C13.0368 9.44776 12.6464 9.58058 12.1232 9.58058H3.64135C3.20669 9.58058 2.87667 9.45783 2.65129 9.21232C2.42994 8.9628 2.31322 8.59857 2.30115 8.11964L4.26315 6.35082C4.37584 6.2502 4.48652 6.17575 4.59518 6.12745C4.70385 6.07513 4.81654 6.04897 4.93325 6.04897C5.06204 6.04897 5.1868 6.07513 5.30754 6.12745C5.42828 6.17575 5.54298 6.2502 5.65164 6.35082L6.61755 7.22617L8.97799 5.11325C9.09873 5.00861 9.2235 4.93013 9.35228 4.87781C9.48107 4.82549 9.6159 4.79933 9.75676 4.79933C9.89762 4.79933 10.0365 4.8275 10.1733 4.88384C10.3101 4.93616 10.4369 5.01464 10.5536 5.11928L13.6506 8.02909ZM5.85086 5.24002C5.62146 5.24002 5.41017 5.18368 5.21699 5.07099C5.02783 4.95428 4.87691 4.80134 4.76422 4.61218C4.65153 4.419 4.59518 4.20771 4.59518 3.9783C4.59518 3.7489 4.65153 3.53962 4.76422 3.35046C4.87691 3.15728 5.02783 3.00435 5.21699 2.89166C5.41017 2.77897 5.62146 2.72262 5.85086 2.72262C6.08027 2.72262 6.28955 2.77897 6.4787 2.89166C6.66786 3.00435 6.81878 3.15728 6.93147 3.35046C7.04819 3.53962 7.10655 3.7489 7.10655 3.9783C7.10655 4.32442 6.98178 4.62224 6.73226 4.87177C6.48675 5.11727 6.19296 5.24002 5.85086 5.24002ZM2.30115 12.925C2.15224 12.925 2.02546 12.8727 1.92082 12.7681C1.82021 12.6675 1.7699 12.5427 1.7699 12.3938C1.7699 12.2489 1.82021 12.1241 1.92082 12.0195C2.02546 11.9149 2.15224 11.8625 2.30115 11.8625H13.6868C13.8357 11.8625 13.9625 11.9149 14.0671 12.0195C14.1718 12.1241 14.2241 12.2489 14.2241 12.3938C14.2241 12.5427 14.1718 12.6675 14.0671 12.7681C13.9625 12.8727 13.8357 12.925 13.6868 12.925H2.30115ZM2.30115 15.7926C2.15224 15.7926 2.02546 15.7423 1.92082 15.6417C1.82021 15.541 1.7699 15.4143 1.7699 15.2613C1.7699 15.1124 1.82021 14.9856 1.92082 14.881C2.02546 14.7804 2.15224 14.7301 2.30115 14.7301H9.80505C9.95397 14.7301 10.0787 14.7804 10.1793 14.881C10.284 14.9856 10.3363 15.1124 10.3363 15.2613C10.3363 15.4143 10.284 15.541 10.1793 15.6417C10.0787 15.7423 9.95397 15.7926 9.80505 15.7926H2.30115Z" fill="#B0B0B0"/>
</svg>
